<svg width="28" height="22" viewBox="0 0 28 22" fill="none" xmlns="http://www.w3.org/2000/svg">
<path d="M12.9609 21.5673C11.9209 20.3498 10.185 19.0476 8.50381 18.2238C6.80626 17.3918 5.19385 16.9297 3.36318 16.751C3.00224 16.7161 2.70299 16.6836 2.69821 16.6789C2.69354 16.6789 2.70287 12.9213 2.72154 8.33911L2.75234 0.00814294L3.08563 0.0407147C5.13216 0.243126 7.41634 1.01415 9.1446 2.08879C10.634 3.01476 12.1721 4.44467 13.1527 5.81478L13.3994 6.15958V14.0732C13.3994 18.4255 13.3808 21.9858 13.3584 21.9851C13.335 21.9844 13.1565 21.7962 12.9609 21.5673ZM14.6562 14.0532V6.10654L15.1327 5.47162C15.7412 4.66104 16.9651 3.43983 17.7744 2.83608C19.9377 1.22168 22.2844 0.309433 24.9785 0.0348982L25.3203 0V8.3426V16.6854L24.9238 16.7227C21.1725 17.0707 17.9202 18.6139 15.3764 21.2527L14.6562 22V14.0532ZM16.9804 21.4598C18.4528 20.0824 20.4019 18.988 22.3598 18.4387C23.3844 18.1514 24.7168 17.9508 25.6013 17.9508C26.065 17.9508 26.3222 17.8508 26.4673 17.6133C26.5765 17.4341 26.5777 17.3571 26.5779 10.597L26.5781 3.76113L26.7832 3.79835C26.8959 3.82162 27.2159 3.91003 27.4941 3.99844L28 4.15897V12.6903C28 17.3825 27.9813 21.2215 27.9582 21.2215C27.9349 21.2215 27.5968 21.1494 27.2063 21.061C25.6629 20.7143 24.3919 20.5952 22.7227 20.6401C20.698 20.696 19.1245 20.9775 17.2539 21.6219L16.543 21.8669L16.9804 21.4598ZM10.746 21.5924C9.9692 21.3151 8.68628 20.9882 7.82022 20.8472C6.64263 20.6564 5.8302 20.6057 4.38694 20.6378C2.95291 20.668 2.08552 20.7681 0.902233 21.0359C0.571365 21.1103 0.232984 21.1871 0.150267 21.2034L0 21.236L0.000256738 12.6819L0.000536563 4.12756L0.642882 3.94143C0.99615 3.83907 1.31598 3.74368 1.35357 3.73204C1.40794 3.70878 1.42194 5.10239 1.42194 10.5603C1.42194 18.0185 1.4056 17.6028 1.72476 17.812C1.83583 17.8841 2.06659 17.9166 2.7256 17.9562C5.34468 18.1051 7.82983 18.982 9.85867 20.474C10.2962 20.7958 11.3462 21.6794 11.4063 21.7764C11.4483 21.8439 11.4203 21.8369 10.7462 21.5949L10.746 21.5924Z" fill="#4F62FF"/>
</svg>
