<svg width="33" height="33" viewBox="0 0 33 33" fill="none" xmlns="http://www.w3.org/2000/svg">
<path d="M28.655 6.33876C27.9527 5.63614 27.1189 5.07877 26.2011 4.6985C25.2834 4.31822 24.2997 4.1225 23.3063 4.1225C22.3128 4.1225 21.3292 4.31822 20.4114 4.6985C19.4936 5.07877 18.6598 5.63614 17.9575 6.33876L16.5 7.79626L15.0425 6.33876C13.6239 4.92018 11.6999 4.12323 9.69376 4.12323C7.68759 4.12323 5.76359 4.92018 4.34501 6.33876C2.92643 7.75733 2.12949 9.68134 2.12949 11.6875C2.12949 13.6937 2.92643 15.6177 4.34501 17.0363L16.5 29.1913L28.655 17.0363C29.3576 16.334 29.915 15.5001 30.2953 14.5824C30.6755 13.6646 30.8713 12.6809 30.8713 11.6875C30.8713 10.6941 30.6755 9.7104 30.2953 8.79264C29.915 7.87489 29.3576 7.04105 28.655 6.33876Z" stroke="#FA9A46" stroke-width="4" stroke-linecap="round" stroke-linejoin="round"/>
</svg>
