<svg width="36" height="23" viewBox="0 0 36 23" fill="none" xmlns="http://www.w3.org/2000/svg">
<g clip-path="url(#clip0_17_195)">
<path d="M8.07188 0.0557442C7.03125 0.275988 5.92875 1.15417 4.81781 2.64847C2.63531 5.58689 0.736876 10.619 0.168751 14.957C0.0450012 15.9048 0.0168762 16.3509 0.0168762 17.3545C0.0168762 18.3749 0.0450012 18.768 0.168751 19.4594C0.548439 21.5475 1.54125 22.7323 3.10219 22.961C3.84469 23.0697 4.57875 22.9275 5.31563 22.5344C6.01594 22.1608 6.60094 21.698 7.425 20.8645C8.14781 20.134 8.62313 19.5709 9.84375 17.9957C10.2347 17.4883 10.6734 16.9336 10.8197 16.7635L11.0841 16.4485H18H24.9159L25.1803 16.7635C25.3266 16.9336 25.7991 17.533 26.235 18.0933C27.5175 19.7493 28.0013 20.3097 28.8169 21.1042C29.5088 21.7733 29.9869 22.1469 30.5859 22.4814C31.3678 22.9163 32.1244 23.0753 32.8978 22.961C33.2606 22.908 33.5588 22.816 33.8653 22.6627C35.775 21.7148 36.4388 18.6258 35.7047 14.1206C35.1141 10.4963 33.6234 6.44556 31.8488 3.62702C31.275 2.71817 30.7378 2.03514 30.1078 1.40508C29.3625 0.663502 28.7606 0.275988 28.0519 0.0780468C27.8297 0.0139256 27.8156 0.0139256 25.425 0.00556183C23.0906 -0.0028019 23.0175 -1.33514e-05 22.8375 0.0529575C22.5984 0.125441 22.2497 0.345684 21.6844 0.780594C21.1753 1.1709 20.8969 1.34932 20.6803 1.42738C20.5425 1.47478 20.3878 1.47756 18 1.47756C15.6122 1.47756 15.4575 1.47478 15.3197 1.42738C15.1031 1.34932 14.8247 1.1709 14.3156 0.780594C13.7531 0.348473 13.4044 0.128229 13.1681 0.0557442C12.9938 0.00277519 12.9066 -1.33514e-05 10.6481 0.00277519C8.49938 0.00277519 8.29125 0.00835037 8.07188 0.0557442ZM26.9522 3.52386C27.2475 3.59356 27.5063 3.81938 27.6075 4.10374C27.6638 4.25708 27.6638 4.55259 27.6075 4.70593C27.3741 5.35271 26.5359 5.52835 26.0719 5.02932C25.8891 4.83417 25.8328 4.68641 25.8328 4.40483C25.8328 4.22362 25.8469 4.1372 25.8919 4.03962C26.01 3.78871 26.2434 3.59635 26.5191 3.52386C26.6878 3.47926 26.7553 3.47926 26.9522 3.52386ZM9.45 4.89271V5.88241H10.4484H11.4469L11.4413 6.54035L11.4328 7.1955L10.4428 7.19271H9.45L9.44438 8.18799L9.43594 9.18605L8.76938 9.19441L8.1 9.19999V8.19635V7.19271H7.10156H6.10313V6.53756V5.88241H7.10156H8.1V4.89271V3.90302H8.775H9.45V4.89271ZM24.7022 5.75417C25.0059 5.82387 25.2844 6.08314 25.3688 6.37308C25.4194 6.54593 25.3941 6.8749 25.3181 7.03102C25.2309 7.20665 25.0481 7.38229 24.8625 7.46871C24.6375 7.57187 24.3225 7.56908 24.1003 7.46314C23.9147 7.37393 23.7291 7.18714 23.6447 7.00314C23.5575 6.81914 23.5575 6.45114 23.6419 6.26993C23.7628 6.01344 24.0131 5.80993 24.2916 5.74581C24.4463 5.70956 24.5194 5.71235 24.7022 5.75417ZM29.4384 5.82665C29.7563 5.98277 29.9391 6.2755 29.9391 6.63514C29.9391 6.81635 29.925 6.87211 29.8463 7.03102C29.6831 7.36277 29.3934 7.5412 29.025 7.5412C28.6538 7.53841 28.3669 7.35999 28.2038 7.03102C28.125 6.87211 28.1109 6.81914 28.1109 6.63514C28.1138 6.46786 28.1278 6.39259 28.1869 6.26993C28.4119 5.78484 28.9547 5.59247 29.4384 5.82665ZM27.1744 8.07926C27.3544 8.16568 27.5288 8.3469 27.6159 8.5309C27.7116 8.73441 27.7172 9.06338 27.6272 9.26132C27.5428 9.44532 27.36 9.63211 27.1716 9.72132C27.0366 9.78823 26.9803 9.79938 26.775 9.79938C26.5697 9.79938 26.5134 9.78823 26.3756 9.72132C25.9059 9.49271 25.7175 8.90447 25.9763 8.45841C26.0634 8.30508 26.2969 8.09877 26.4459 8.0458C26.6259 7.9789 27.0056 7.99841 27.1744 8.07926ZM14.4984 11.6673C15.1763 11.8094 15.7528 12.3782 15.9075 13.064C16.0031 13.4933 15.9188 13.9923 15.6881 14.3799C15.5419 14.628 15.2381 14.9123 14.9766 15.0462C14.6756 15.1995 14.445 15.258 14.1188 15.258C13.3988 15.2608 12.7688 14.8705 12.4594 14.2321C12.3188 13.9394 12.2794 13.761 12.2822 13.4376C12.285 12.7211 12.6703 12.1189 13.3228 11.8039C13.68 11.631 14.0963 11.5836 14.4984 11.6673ZM22.2834 11.6673C22.6688 11.7481 23.0822 12.0046 23.3269 12.3113C23.5969 12.6514 23.7178 13.0138 23.7178 13.4654C23.715 13.9812 23.5322 14.3938 23.1441 14.7618C22.7869 15.0991 22.3763 15.2608 21.8813 15.258C21.3834 15.2553 20.9447 15.0768 20.6016 14.7339C20.2556 14.3882 20.0869 14.0174 20.0616 13.5491C20.0419 13.2062 20.0981 12.9357 20.2556 12.6207C20.4863 12.1635 20.9869 11.776 21.4875 11.67C21.7266 11.6171 22.0472 11.6171 22.2834 11.6673Z" fill="#11BFAA"/>
</g>
<defs>
<clipPath id="clip0_17_195">
<rect width="36" height="23" fill="white"/>
</clipPath>
</defs>
</svg>
