<svg width="26" height="26" viewBox="0 0 26 26" fill="none" xmlns="http://www.w3.org/2000/svg">
<path d="M5.78191 0.0804763L10.0657 7.42857H0V6.80952C0 3.39238 2.50714 0.569524 5.78191 0.0804763ZM18.1133 7.42857H11.4957L7.16238 0H13.78L18.1133 7.42857ZM26 6.80952V7.42857H19.5433L15.21 0H19.1905C22.9543 0 26 3.04571 26 6.80952ZM0 8.66667V19.1905C0 22.9543 3.04571 26 6.80952 26H19.1905C22.9543 26 26 22.9543 26 19.1905V8.66667H0ZM16.7143 17.451L11.7681 20.2614C10.9448 20.7319 9.90476 20.15 9.90476 19.2152V13.5943C9.90476 12.6595 10.9448 12.0776 11.7681 12.5481L16.7143 15.3586C17.5376 15.8229 17.5376 16.9867 16.7143 17.451Z" fill="#DBADFF"/>
</svg>
